# xmcd CD database file
#
# Track frame offsets:
#	150
#	20852
#	44135
#	70673
#	86193
#	108160
#	127211
#	157253
#	179333
#	198086
#	221784
#	247758
#	268336
#
# Disc length: 3860 seconds
#
# Revision: 0
# Processed by: cddbd v1.5.2PL0 Copyright (c) Steve Scherf et al.
# Submitted via: CDex 2.03
#
DISCID=ca0f120d
DTITLE=REIS DEMUTH WILTGEN - Once In A Blue Moon
DYEAR=2018
DGENRE=Jazz
TTITLE0=Freedom Trial
TTITLE1=Push
TTITLE2=22 May 15
TTITLE3=Both Sides Now
TTITLE4=New Beginning
TTITLE5=Never Seen Again
TTITLE6=Sacred Conversation
TTITLE7=Catherine's Song
TTITLE8=A Day In The Village
TTITLE9=Between A Rock And A Hard Place
TTITLE10=Dante
TTITLE11=Coming Home
TTITLE12=Sunrise In Juba
EXTD=YEAR: 2018
EXTT0=
EXTT1=
EXTT2=
EXTT3=
EXTT4=
EXTT5=
EXTT6=
EXTT7=
EXTT8=
EXTT9=
EXTT10=
EXTT11=
EXTT12=
PLAYORDER=
